<mxfile host="Electron" agent="Mozilla/5.0 (Windows NT 10.0; Win64; x64) AppleWebKit/537.36 (KHTML, like Gecko) draw.io/28.0.6 Chrome/138.0.7204.100 Electron/37.2.3 Safari/537.36" version="28.0.6">
  <diagram name="Page-1" id="CIy4482F9gl86Af8WQmn">
    <mxGraphModel dx="1011" dy="501" grid="1" gridSize="10" guides="1" tooltips="1" connect="1" arrows="1" fold="1" page="1" pageScale="1" pageWidth="850" pageHeight="1100" math="0" shadow="0">
      <root>
        <mxCell id="0" />
        <mxCell id="1" parent="0" />
        <mxCell id="M1eSz7GyeCcWdMIm-Ngs-6" style="edgeStyle=orthogonalEdgeStyle;rounded=0;orthogonalLoop=1;jettySize=auto;html=1;exitX=0.5;exitY=1;exitDx=0;exitDy=0;" edge="1" parent="1" source="M1eSz7GyeCcWdMIm-Ngs-1" target="M1eSz7GyeCcWdMIm-Ngs-5">
          <mxGeometry relative="1" as="geometry">
            <Array as="points">
              <mxPoint x="550" y="150" />
              <mxPoint x="550" y="150" />
            </Array>
          </mxGeometry>
        </mxCell>
        <mxCell id="M1eSz7GyeCcWdMIm-Ngs-1" value="" style="ellipse;whiteSpace=wrap;html=1;" vertex="1" parent="1">
          <mxGeometry x="490" y="70" width="120" height="40" as="geometry" />
        </mxCell>
        <mxCell id="M1eSz7GyeCcWdMIm-Ngs-90" style="edgeStyle=orthogonalEdgeStyle;rounded=0;orthogonalLoop=1;jettySize=auto;html=1;exitX=0.5;exitY=1;exitDx=0;exitDy=0;entryX=0.5;entryY=0;entryDx=0;entryDy=0;" edge="1" parent="1" source="M1eSz7GyeCcWdMIm-Ngs-2" target="M1eSz7GyeCcWdMIm-Ngs-69">
          <mxGeometry relative="1" as="geometry" />
        </mxCell>
        <mxCell id="M1eSz7GyeCcWdMIm-Ngs-2" value="" style="rhombus;whiteSpace=wrap;html=1;" vertex="1" parent="1">
          <mxGeometry x="495" y="259" width="110" height="100" as="geometry" />
        </mxCell>
        <mxCell id="M1eSz7GyeCcWdMIm-Ngs-10" style="edgeStyle=orthogonalEdgeStyle;rounded=0;orthogonalLoop=1;jettySize=auto;html=1;entryX=1;entryY=0.5;entryDx=0;entryDy=0;" edge="1" parent="1" source="M1eSz7GyeCcWdMIm-Ngs-4" target="M1eSz7GyeCcWdMIm-Ngs-9">
          <mxGeometry relative="1" as="geometry" />
        </mxCell>
        <mxCell id="M1eSz7GyeCcWdMIm-Ngs-4" value="" style="rounded=0;whiteSpace=wrap;html=1;" vertex="1" parent="1">
          <mxGeometry x="330" y="130" width="110" height="30" as="geometry" />
        </mxCell>
        <mxCell id="M1eSz7GyeCcWdMIm-Ngs-7" style="edgeStyle=orthogonalEdgeStyle;rounded=0;orthogonalLoop=1;jettySize=auto;html=1;exitX=0.5;exitY=1;exitDx=0;exitDy=0;entryX=0.5;entryY=0;entryDx=0;entryDy=0;" edge="1" parent="1" source="M1eSz7GyeCcWdMIm-Ngs-5" target="M1eSz7GyeCcWdMIm-Ngs-2">
          <mxGeometry relative="1" as="geometry" />
        </mxCell>
        <mxCell id="M1eSz7GyeCcWdMIm-Ngs-5" value="" style="rounded=0;whiteSpace=wrap;html=1;" vertex="1" parent="1">
          <mxGeometry x="490" y="180" width="120" height="40" as="geometry" />
        </mxCell>
        <mxCell id="M1eSz7GyeCcWdMIm-Ngs-13" style="edgeStyle=orthogonalEdgeStyle;rounded=0;orthogonalLoop=1;jettySize=auto;html=1;exitX=0.5;exitY=1;exitDx=0;exitDy=0;entryX=0;entryY=0.5;entryDx=0;entryDy=0;" edge="1" parent="1" source="M1eSz7GyeCcWdMIm-Ngs-9" target="M1eSz7GyeCcWdMIm-Ngs-11">
          <mxGeometry relative="1" as="geometry" />
        </mxCell>
        <mxCell id="M1eSz7GyeCcWdMIm-Ngs-9" value="" style="rhombus;whiteSpace=wrap;html=1;" vertex="1" parent="1">
          <mxGeometry x="150" y="97.5" width="100" height="95" as="geometry" />
        </mxCell>
        <mxCell id="M1eSz7GyeCcWdMIm-Ngs-11" value="" style="rounded=0;whiteSpace=wrap;html=1;" vertex="1" parent="1">
          <mxGeometry x="240" y="230" width="120" height="30" as="geometry" />
        </mxCell>
        <mxCell id="M1eSz7GyeCcWdMIm-Ngs-17" value="" style="endArrow=classic;html=1;rounded=0;exitX=1;exitY=0.5;exitDx=0;exitDy=0;entryX=0.5;entryY=1;entryDx=0;entryDy=0;" edge="1" parent="1" source="M1eSz7GyeCcWdMIm-Ngs-11" target="M1eSz7GyeCcWdMIm-Ngs-4">
          <mxGeometry width="50" height="50" relative="1" as="geometry">
            <mxPoint x="480" y="300" as="sourcePoint" />
            <mxPoint x="530" y="250" as="targetPoint" />
            <Array as="points">
              <mxPoint x="385" y="245" />
            </Array>
          </mxGeometry>
        </mxCell>
        <mxCell id="M1eSz7GyeCcWdMIm-Ngs-18" value="" style="endArrow=classic;html=1;rounded=0;entryX=1;entryY=0.5;entryDx=0;entryDy=0;" edge="1" parent="1" target="M1eSz7GyeCcWdMIm-Ngs-4">
          <mxGeometry width="50" height="50" relative="1" as="geometry">
            <mxPoint x="550" y="145" as="sourcePoint" />
            <mxPoint x="505" y="120" as="targetPoint" />
          </mxGeometry>
        </mxCell>
        <mxCell id="M1eSz7GyeCcWdMIm-Ngs-60" style="edgeStyle=orthogonalEdgeStyle;rounded=0;orthogonalLoop=1;jettySize=auto;html=1;exitX=0;exitY=0.25;exitDx=0;exitDy=0;entryX=0;entryY=0.5;entryDx=0;entryDy=0;" edge="1" parent="1" source="M1eSz7GyeCcWdMIm-Ngs-19" target="M1eSz7GyeCcWdMIm-Ngs-41">
          <mxGeometry relative="1" as="geometry">
            <Array as="points">
              <mxPoint x="20" y="338" />
              <mxPoint x="20" y="685" />
            </Array>
          </mxGeometry>
        </mxCell>
        <mxCell id="M1eSz7GyeCcWdMIm-Ngs-19" value="" style="rounded=0;whiteSpace=wrap;html=1;" vertex="1" parent="1">
          <mxGeometry x="80" y="330" width="100" height="30" as="geometry" />
        </mxCell>
        <mxCell id="M1eSz7GyeCcWdMIm-Ngs-20" style="edgeStyle=orthogonalEdgeStyle;rounded=0;orthogonalLoop=1;jettySize=auto;html=1;exitX=0;exitY=0.5;exitDx=0;exitDy=0;entryX=0.381;entryY=0.056;entryDx=0;entryDy=0;entryPerimeter=0;" edge="1" parent="1" source="M1eSz7GyeCcWdMIm-Ngs-9" target="M1eSz7GyeCcWdMIm-Ngs-19">
          <mxGeometry relative="1" as="geometry" />
        </mxCell>
        <mxCell id="M1eSz7GyeCcWdMIm-Ngs-40" value="" style="rounded=1;whiteSpace=wrap;html=1;" vertex="1" parent="1">
          <mxGeometry x="81" y="394" width="96" height="30" as="geometry" />
        </mxCell>
        <mxCell id="M1eSz7GyeCcWdMIm-Ngs-41" value="" style="rounded=1;whiteSpace=wrap;html=1;" vertex="1" parent="1">
          <mxGeometry x="80" y="670" width="96" height="30" as="geometry" />
        </mxCell>
        <mxCell id="M1eSz7GyeCcWdMIm-Ngs-43" value="" style="rounded=1;whiteSpace=wrap;html=1;" vertex="1" parent="1">
          <mxGeometry x="81" y="504" width="96" height="30" as="geometry" />
        </mxCell>
        <mxCell id="M1eSz7GyeCcWdMIm-Ngs-45" value="" style="rounded=1;whiteSpace=wrap;html=1;" vertex="1" parent="1">
          <mxGeometry x="81" y="454" width="96" height="30" as="geometry" />
        </mxCell>
        <mxCell id="M1eSz7GyeCcWdMIm-Ngs-46" value="Payment" style="text;html=1;align=center;verticalAlign=middle;whiteSpace=wrap;rounded=0;" vertex="1" parent="1">
          <mxGeometry x="101" y="504" width="56" height="30" as="geometry" />
        </mxCell>
        <mxCell id="M1eSz7GyeCcWdMIm-Ngs-47" value="&lt;span style=&quot;font-weight: normal;&quot;&gt;Booking&lt;/span&gt;" style="text;html=1;align=center;verticalAlign=middle;whiteSpace=wrap;rounded=0;fontStyle=1" vertex="1" parent="1">
          <mxGeometry x="101" y="454" width="56" height="30" as="geometry" />
        </mxCell>
        <mxCell id="M1eSz7GyeCcWdMIm-Ngs-49" value="View Rooms" style="text;html=1;align=center;verticalAlign=middle;whiteSpace=wrap;rounded=0;" vertex="1" parent="1">
          <mxGeometry x="100" y="394" width="56" height="30" as="geometry" />
        </mxCell>
        <mxCell id="M1eSz7GyeCcWdMIm-Ngs-51" value="Profile" style="text;html=1;align=center;verticalAlign=middle;whiteSpace=wrap;rounded=0;" vertex="1" parent="1">
          <mxGeometry x="100" y="670" width="56" height="30" as="geometry" />
        </mxCell>
        <mxCell id="M1eSz7GyeCcWdMIm-Ngs-53" value="" style="rounded=1;whiteSpace=wrap;html=1;" vertex="1" parent="1">
          <mxGeometry x="81" y="614" width="96" height="30" as="geometry" />
        </mxCell>
        <mxCell id="M1eSz7GyeCcWdMIm-Ngs-54" value="" style="rounded=1;whiteSpace=wrap;html=1;" vertex="1" parent="1">
          <mxGeometry x="82" y="560" width="96" height="30" as="geometry" />
        </mxCell>
        <mxCell id="M1eSz7GyeCcWdMIm-Ngs-55" value="Notification" style="text;html=1;align=center;verticalAlign=middle;whiteSpace=wrap;rounded=0;" vertex="1" parent="1">
          <mxGeometry x="101" y="619" width="56" height="20" as="geometry" />
        </mxCell>
        <mxCell id="M1eSz7GyeCcWdMIm-Ngs-56" value="Chat" style="text;html=1;align=center;verticalAlign=middle;whiteSpace=wrap;rounded=0;" vertex="1" parent="1">
          <mxGeometry x="102" y="565" width="56" height="20" as="geometry" />
        </mxCell>
        <mxCell id="M1eSz7GyeCcWdMIm-Ngs-61" value="" style="endArrow=classic;html=1;rounded=0;" edge="1" parent="1">
          <mxGeometry width="50" height="50" relative="1" as="geometry">
            <mxPoint x="20" y="408.5" as="sourcePoint" />
            <mxPoint x="80" y="408.5" as="targetPoint" />
            <Array as="points">
              <mxPoint x="20" y="408.5" />
            </Array>
          </mxGeometry>
        </mxCell>
        <mxCell id="M1eSz7GyeCcWdMIm-Ngs-62" value="" style="endArrow=classic;html=1;rounded=0;" edge="1" parent="1">
          <mxGeometry width="50" height="50" relative="1" as="geometry">
            <mxPoint x="21" y="468.5" as="sourcePoint" />
            <mxPoint x="81" y="468.5" as="targetPoint" />
            <Array as="points">
              <mxPoint x="21" y="468.5" />
            </Array>
          </mxGeometry>
        </mxCell>
        <mxCell id="M1eSz7GyeCcWdMIm-Ngs-64" value="" style="endArrow=classic;html=1;rounded=0;" edge="1" parent="1">
          <mxGeometry width="50" height="50" relative="1" as="geometry">
            <mxPoint x="20" y="518.5" as="sourcePoint" />
            <mxPoint x="80" y="518.5" as="targetPoint" />
            <Array as="points">
              <mxPoint x="20" y="518.5" />
            </Array>
          </mxGeometry>
        </mxCell>
        <mxCell id="M1eSz7GyeCcWdMIm-Ngs-65" value="" style="endArrow=classic;html=1;rounded=0;" edge="1" parent="1">
          <mxGeometry width="50" height="50" relative="1" as="geometry">
            <mxPoint x="21" y="574.5" as="sourcePoint" />
            <mxPoint x="81" y="574.5" as="targetPoint" />
            <Array as="points">
              <mxPoint x="21" y="574.5" />
            </Array>
          </mxGeometry>
        </mxCell>
        <mxCell id="M1eSz7GyeCcWdMIm-Ngs-66" value="" style="endArrow=classic;html=1;rounded=0;" edge="1" parent="1">
          <mxGeometry width="50" height="50" relative="1" as="geometry">
            <mxPoint x="21" y="628.5" as="sourcePoint" />
            <mxPoint x="81" y="628.5" as="targetPoint" />
            <Array as="points">
              <mxPoint x="21" y="628.5" />
            </Array>
          </mxGeometry>
        </mxCell>
        <mxCell id="M1eSz7GyeCcWdMIm-Ngs-67" value="Students" style="text;html=1;align=center;verticalAlign=middle;whiteSpace=wrap;rounded=0;" vertex="1" parent="1">
          <mxGeometry x="99" y="337" width="60" height="16" as="geometry" />
        </mxCell>
        <mxCell id="M1eSz7GyeCcWdMIm-Ngs-114" style="edgeStyle=orthogonalEdgeStyle;rounded=0;orthogonalLoop=1;jettySize=auto;html=1;exitX=1;exitY=0.5;exitDx=0;exitDy=0;entryX=1;entryY=0.5;entryDx=0;entryDy=0;" edge="1" parent="1">
          <mxGeometry relative="1" as="geometry">
            <mxPoint x="603" y="407" as="sourcePoint" />
            <mxPoint x="596" y="685" as="targetPoint" />
            <Array as="points">
              <mxPoint x="679" y="407" />
              <mxPoint x="679" y="685" />
            </Array>
          </mxGeometry>
        </mxCell>
        <mxCell id="M1eSz7GyeCcWdMIm-Ngs-69" value="" style="rounded=0;whiteSpace=wrap;html=1;" vertex="1" parent="1">
          <mxGeometry x="496" y="394" width="108" height="26" as="geometry" />
        </mxCell>
        <mxCell id="M1eSz7GyeCcWdMIm-Ngs-71" value="" style="rounded=1;whiteSpace=wrap;html=1;" vertex="1" parent="1">
          <mxGeometry x="498" y="444" width="100" height="30" as="geometry" />
        </mxCell>
        <mxCell id="M1eSz7GyeCcWdMIm-Ngs-72" value="" style="rounded=1;whiteSpace=wrap;html=1;" vertex="1" parent="1">
          <mxGeometry x="497" y="670" width="100" height="30" as="geometry" />
        </mxCell>
        <mxCell id="M1eSz7GyeCcWdMIm-Ngs-74" value="" style="rounded=1;whiteSpace=wrap;html=1;" vertex="1" parent="1">
          <mxGeometry x="497" y="535" width="100" height="30" as="geometry" />
        </mxCell>
        <mxCell id="M1eSz7GyeCcWdMIm-Ngs-76" value="" style="rounded=1;whiteSpace=wrap;html=1;" vertex="1" parent="1">
          <mxGeometry x="498" y="490" width="100" height="30" as="geometry" />
        </mxCell>
        <mxCell id="M1eSz7GyeCcWdMIm-Ngs-77" value="View Payments" style="text;html=1;align=center;verticalAlign=middle;whiteSpace=wrap;rounded=0;" vertex="1" parent="1">
          <mxGeometry x="512" y="535" width="60" height="30" as="geometry" />
        </mxCell>
        <mxCell id="M1eSz7GyeCcWdMIm-Ngs-78" value="&lt;span style=&quot;font-weight: normal;&quot;&gt;Reservations&lt;/span&gt;" style="text;html=1;align=center;verticalAlign=middle;whiteSpace=wrap;rounded=0;fontStyle=1" vertex="1" parent="1">
          <mxGeometry x="522" y="490" width="50" height="30" as="geometry" />
        </mxCell>
        <mxCell id="M1eSz7GyeCcWdMIm-Ngs-79" value="Add Rooms" style="text;html=1;align=center;verticalAlign=middle;whiteSpace=wrap;rounded=0;" vertex="1" parent="1">
          <mxGeometry x="513" y="444" width="60" height="30" as="geometry" />
        </mxCell>
        <mxCell id="M1eSz7GyeCcWdMIm-Ngs-81" value="Profile" style="text;html=1;align=center;verticalAlign=middle;whiteSpace=wrap;rounded=0;" vertex="1" parent="1">
          <mxGeometry x="514" y="670" width="60" height="30" as="geometry" />
        </mxCell>
        <mxCell id="M1eSz7GyeCcWdMIm-Ngs-83" value="" style="rounded=1;whiteSpace=wrap;html=1;" vertex="1" parent="1">
          <mxGeometry x="498" y="580" width="100" height="30" as="geometry" />
        </mxCell>
        <mxCell id="M1eSz7GyeCcWdMIm-Ngs-84" value="Reports" style="text;html=1;align=center;verticalAlign=middle;whiteSpace=wrap;rounded=0;" vertex="1" parent="1">
          <mxGeometry x="515" y="585" width="60" height="20" as="geometry" />
        </mxCell>
        <mxCell id="M1eSz7GyeCcWdMIm-Ngs-85" value="" style="rounded=1;whiteSpace=wrap;html=1;" vertex="1" parent="1">
          <mxGeometry x="498" y="630" width="100" height="30" as="geometry" />
        </mxCell>
        <mxCell id="M1eSz7GyeCcWdMIm-Ngs-86" value="Chat" style="text;html=1;align=center;verticalAlign=middle;whiteSpace=wrap;rounded=0;" vertex="1" parent="1">
          <mxGeometry x="513" y="635" width="60" height="20" as="geometry" />
        </mxCell>
        <mxCell id="M1eSz7GyeCcWdMIm-Ngs-91" value="" style="endArrow=classic;html=1;rounded=0;" edge="1" parent="1">
          <mxGeometry width="50" height="50" relative="1" as="geometry">
            <mxPoint x="603" y="307" as="sourcePoint" />
            <mxPoint x="549" y="138" as="targetPoint" />
            <Array as="points">
              <mxPoint x="653" y="307" />
              <mxPoint x="650" y="138" />
            </Array>
          </mxGeometry>
        </mxCell>
        <mxCell id="M1eSz7GyeCcWdMIm-Ngs-93" value="" style="endArrow=none;html=1;rounded=0;entryX=0.5;entryY=1;entryDx=0;entryDy=0;" edge="1" parent="1" target="M1eSz7GyeCcWdMIm-Ngs-81">
          <mxGeometry width="50" height="50" relative="1" as="geometry">
            <mxPoint x="120" y="700" as="sourcePoint" />
            <mxPoint x="530" y="760" as="targetPoint" />
            <Array as="points">
              <mxPoint x="120" y="740" />
              <mxPoint x="330" y="740" />
              <mxPoint x="544" y="740" />
            </Array>
          </mxGeometry>
        </mxCell>
        <mxCell id="M1eSz7GyeCcWdMIm-Ngs-94" value="" style="ellipse;whiteSpace=wrap;html=1;" vertex="1" parent="1">
          <mxGeometry x="280" y="810" width="120" height="30" as="geometry" />
        </mxCell>
        <mxCell id="M1eSz7GyeCcWdMIm-Ngs-95" value="" style="endArrow=classic;html=1;rounded=0;entryX=0.5;entryY=0;entryDx=0;entryDy=0;" edge="1" parent="1" target="M1eSz7GyeCcWdMIm-Ngs-94">
          <mxGeometry width="50" height="50" relative="1" as="geometry">
            <mxPoint x="340" y="740" as="sourcePoint" />
            <mxPoint x="390" y="690" as="targetPoint" />
          </mxGeometry>
        </mxCell>
        <mxCell id="M1eSz7GyeCcWdMIm-Ngs-96" value="Stop" style="text;html=1;align=center;verticalAlign=middle;whiteSpace=wrap;rounded=0;" vertex="1" parent="1">
          <mxGeometry x="310" y="815" width="60" height="20" as="geometry" />
        </mxCell>
        <mxCell id="M1eSz7GyeCcWdMIm-Ngs-97" value="Start" style="text;html=1;align=center;verticalAlign=middle;whiteSpace=wrap;rounded=0;" vertex="1" parent="1">
          <mxGeometry x="517" y="80" width="60" height="20" as="geometry" />
        </mxCell>
        <mxCell id="M1eSz7GyeCcWdMIm-Ngs-98" value="Login" style="text;html=1;align=center;verticalAlign=middle;whiteSpace=wrap;rounded=0;" vertex="1" parent="1">
          <mxGeometry x="355" y="135" width="60" height="20" as="geometry" />
        </mxCell>
        <mxCell id="M1eSz7GyeCcWdMIm-Ngs-101" value="Login" style="text;html=1;align=center;verticalAlign=middle;whiteSpace=wrap;rounded=0;" vertex="1" parent="1">
          <mxGeometry x="520" y="190" width="60" height="20" as="geometry" />
        </mxCell>
        <mxCell id="M1eSz7GyeCcWdMIm-Ngs-102" value="Register" style="text;html=1;align=center;verticalAlign=middle;whiteSpace=wrap;rounded=0;" vertex="1" parent="1">
          <mxGeometry x="265" y="235" width="70" height="20" as="geometry" />
        </mxCell>
        <mxCell id="M1eSz7GyeCcWdMIm-Ngs-103" value="Admin" style="text;html=1;align=center;verticalAlign=middle;whiteSpace=wrap;rounded=0;" vertex="1" parent="1">
          <mxGeometry x="520" y="397" width="60" height="20" as="geometry" />
        </mxCell>
        <mxCell id="M1eSz7GyeCcWdMIm-Ngs-104" value="Successful?" style="text;html=1;align=center;verticalAlign=middle;whiteSpace=wrap;rounded=0;" vertex="1" parent="1">
          <mxGeometry x="520" y="299" width="60" height="20" as="geometry" />
        </mxCell>
        <mxCell id="M1eSz7GyeCcWdMIm-Ngs-105" value="Successful?" style="text;html=1;align=center;verticalAlign=middle;whiteSpace=wrap;rounded=0;" vertex="1" parent="1">
          <mxGeometry x="170" y="135" width="60" height="20" as="geometry" />
        </mxCell>
        <mxCell id="M1eSz7GyeCcWdMIm-Ngs-106" value="No" style="text;html=1;align=center;verticalAlign=middle;whiteSpace=wrap;rounded=0;" vertex="1" parent="1">
          <mxGeometry x="200" y="220" width="20" height="20" as="geometry" />
        </mxCell>
        <mxCell id="M1eSz7GyeCcWdMIm-Ngs-107" value="No" style="text;html=1;align=center;verticalAlign=middle;whiteSpace=wrap;rounded=0;" vertex="1" parent="1">
          <mxGeometry x="620" y="290" width="20" height="20" as="geometry" />
        </mxCell>
        <mxCell id="M1eSz7GyeCcWdMIm-Ngs-108" value="Yes" style="text;html=1;align=center;verticalAlign=middle;whiteSpace=wrap;rounded=0;" vertex="1" parent="1">
          <mxGeometry x="550" y="360" width="30" height="20" as="geometry" />
        </mxCell>
        <mxCell id="M1eSz7GyeCcWdMIm-Ngs-110" value="Yes" style="text;html=1;align=center;verticalAlign=middle;whiteSpace=wrap;rounded=0;" vertex="1" parent="1">
          <mxGeometry x="119" y="130" width="40" height="20" as="geometry" />
        </mxCell>
        <mxCell id="M1eSz7GyeCcWdMIm-Ngs-112" value="" style="endArrow=classic;html=1;rounded=0;" edge="1" parent="1">
          <mxGeometry width="50" height="50" relative="1" as="geometry">
            <mxPoint x="678" y="458.5" as="sourcePoint" />
            <mxPoint x="598" y="458.5" as="targetPoint" />
          </mxGeometry>
        </mxCell>
        <mxCell id="M1eSz7GyeCcWdMIm-Ngs-115" value="" style="endArrow=classic;html=1;rounded=0;" edge="1" parent="1">
          <mxGeometry width="50" height="50" relative="1" as="geometry">
            <mxPoint x="678" y="504" as="sourcePoint" />
            <mxPoint x="598" y="504" as="targetPoint" />
          </mxGeometry>
        </mxCell>
        <mxCell id="M1eSz7GyeCcWdMIm-Ngs-116" value="" style="endArrow=classic;html=1;rounded=0;" edge="1" parent="1">
          <mxGeometry width="50" height="50" relative="1" as="geometry">
            <mxPoint x="678" y="549.5" as="sourcePoint" />
            <mxPoint x="598" y="549.5" as="targetPoint" />
          </mxGeometry>
        </mxCell>
        <mxCell id="M1eSz7GyeCcWdMIm-Ngs-117" value="" style="endArrow=classic;html=1;rounded=0;" edge="1" parent="1">
          <mxGeometry width="50" height="50" relative="1" as="geometry">
            <mxPoint x="677" y="594.5" as="sourcePoint" />
            <mxPoint x="597" y="594.5" as="targetPoint" />
          </mxGeometry>
        </mxCell>
        <mxCell id="M1eSz7GyeCcWdMIm-Ngs-118" value="" style="endArrow=classic;html=1;rounded=0;" edge="1" parent="1">
          <mxGeometry width="50" height="50" relative="1" as="geometry">
            <mxPoint x="678" y="644.5" as="sourcePoint" />
            <mxPoint x="598" y="644.5" as="targetPoint" />
          </mxGeometry>
        </mxCell>
      </root>
    </mxGraphModel>
  </diagram>
</mxfile>
